# xmcd CD database file
#
# Track frame offsets:
#	150
#	8955
#	21262
#	29837
#	43348
#	55117
#	64921
#	76826
#	87532
#	97209
#	110680
#	125908
#	139115
#	152202
#	165201
#	178042
#
# Disc length: 2661 seconds
#
# Revision: 0
# Processed by: cddbd v1.4PL0 Copyright (c) Steve Scherf et al.
# Submitted via: CDex 1.50Beta7
#
DISCID=e40a6310
DTITLE=Platters - We Wish You a Merry Christmas
DYEAR=1900
DGENRE=Rhythmic Soul
TTITLE0=Rudolph The Red-Nosed Reindeer
TTITLE1=I'll Be Home for Christmas
TTITLE2=Blue Christmas
TTITLE3=Silent Night
TTITLE4=White Christmas
TTITLE5=Here Comes Santa Claus
TTITLE6=We Wish You a Merry Christmas
TTITLE7=I Saw Mommy Kissing Santa Claus
TTITLE8=Deck The Halls
TTITLE9=God Rest Ye Merry Gentlemen
TTITLE10=The Christmas Song
TTITLE11=Silver Bells
TTITLE12=Joy to the World
TTITLE13=Away in a Manger
TTITLE14=O Tannenbaum
TTITLE15='Twas the Night Before Christmas
EXTD=
EXTT0=
EXTT1=
EXTT2=
EXTT3=
EXTT4=
EXTT5=
EXTT6=
EXTT7=
EXTT8=
EXTT9=
EXTT10=
EXTT11=
EXTT12=
EXTT13=
EXTT14=
EXTT15=
PLAYORDER=
